<svg id="Group_16932" data-name="Group 16932" xmlns="http://www.w3.org/2000/svg" xmlns:xlink="http://www.w3.org/1999/xlink" width="17.12" height="17.12" viewBox="0 0 17.12 17.12">
  <defs>
    <clipPath id="clip-path">
      <rect id="Rectangle_5807" data-name="Rectangle 5807" width="17.12" height="17.12" fill="#87837b"/>
    </clipPath>
  </defs>
  <g id="Group_16932-2" data-name="Group 16932" clip-path="url(#clip-path)">
    <path id="Path_22825" data-name="Path 22825" d="M7.692,15.384A7.692,7.692,0,0,1,7.691,0h0a7.7,7.7,0,0,1,7.691,7.69h0a7.7,7.7,0,0,1-7.692,7.693m0-13.884h0A6.19,6.19,0,1,0,12.07,3.312,6.2,6.2,0,0,0,7.691,1.5" transform="translate(0 0)" fill="#87837b"/>
    <path id="Path_22826" data-name="Path 22826" d="M16.37,17.12a.744.744,0,0,1-.53-.22l-3.775-3.775a.75.75,0,0,1,1.061-1.061L16.9,15.84a.75.75,0,0,1-.53,1.28" transform="translate(0 0)" fill="#87837b"/>
  </g>
</svg>
